<svg width="104" height="100" viewBox="0 0 104 100" fill="none" xmlns="http://www.w3.org/2000/svg">
<rect width="104" height="100" rx="20" fill="black"/>
<path d="M40.0753 76.64C36.7046 76.64 34.1233 75.68 32.3313 73.76C30.5819 71.84 29.7073 69.1307 29.7073 65.632V41.568C29.7073 38.0693 30.5819 35.36 32.3313 33.44C34.1233 31.52 36.7046 30.56 40.0753 30.56C43.4459 30.56 46.0059 31.52 47.7553 33.44C49.5473 35.36 50.4433 38.0693 50.4433 41.568V46.304H43.7873V41.12C43.7873 38.3467 42.6139 36.96 40.2673 36.96C37.9206 36.96 36.7473 38.3467 36.7473 41.12V66.144C36.7473 68.8747 37.9206 70.24 40.2673 70.24C42.6139 70.24 43.7873 68.8747 43.7873 66.144V59.296H50.4433V65.632C50.4433 69.1307 49.5473 71.84 47.7553 73.76C46.0059 75.68 43.4459 76.64 40.0753 76.64ZM52.7993 31.2H59.9033L64.5113 65.952H64.6393L69.2473 31.2H75.7113L68.9272 76H59.5833L52.7993 31.2Z" fill="white"/>
</svg>
