<svg width="104" height="100" viewBox="0 0 104 100" fill="none" xmlns="http://www.w3.org/2000/svg">
<rect width="104" height="100" rx="20" fill="#4361EE"/>
<path d="M53.6865 24.2H64.3105C67.9372 24.2 70.5825 25.0533 72.2465 26.76C73.9105 28.424 74.7425 31.0053 74.7425 34.504V36.296C74.7425 38.6 74.3585 40.4773 73.5905 41.928C72.8652 43.3787 71.7345 44.424 70.1985 45.064V45.192C73.6972 46.3867 75.4465 49.5013 75.4465 54.536V58.376C75.4465 61.832 74.5292 64.4773 72.6945 66.312C70.9025 68.104 68.2572 69 64.7585 69H53.6865V24.2ZM63.4785 42.44C64.8865 42.44 65.9318 42.0773 66.6145 41.352C67.3398 40.6267 67.7025 39.4107 67.7025 37.704V35.208C67.7025 33.5867 67.4038 32.4133 66.8065 31.688C66.2518 30.9627 65.3558 30.6 64.1185 30.6H60.7265V42.44H63.4785ZM64.7585 62.6C65.9958 62.6 66.9132 62.28 67.5105 61.64C68.1078 60.9573 68.4065 59.8053 68.4065 58.184V54.28C68.4065 52.232 68.0438 50.824 67.3185 50.056C66.6358 49.2453 65.4838 48.84 63.8625 48.84H60.7265V62.6H64.7585Z" fill="white"/>
<path d="M31.624 24.2H50.248V30.6H38.664V43.08H47.752V49.48H38.664V69H31.624V24.2Z" fill="white"/>
</svg>
