<svg width="104" height="100" viewBox="0 0 104 100" fill="none" xmlns="http://www.w3.org/2000/svg">
<rect width="104" height="100" rx="20" fill="#EAEAEA"/>
<path d="M52.4668 14.3335C31.939 14.3252 15.3125 30.9434 15.3125 51.4546C15.3125 67.6743 25.7134 81.4619 40.1982 86.5254C42.1489 87.0151 41.8501 85.6289 41.8501 84.6826V78.2495C30.5859 79.5693 30.1294 72.1152 29.374 70.8701C27.8467 68.2637 24.2358 67.5996 25.3149 66.3545C27.8799 65.0347 30.4946 66.6865 33.5244 71.1606C35.7158 74.4063 39.9907 73.8584 42.1572 73.3189C42.6304 71.3682 43.6431 69.625 45.0376 68.272C33.3667 66.1802 28.5024 59.0581 28.5024 50.5913C28.5024 46.4824 29.8555 42.7056 32.5117 39.6592C30.8184 34.6372 32.6694 30.3374 32.9185 29.6982C37.7412 29.2666 42.7549 33.1514 43.145 33.4585C45.8843 32.7197 49.0137 32.3296 52.5166 32.3296C56.0361 32.3296 59.1738 32.7363 61.938 33.4834C62.876 32.7695 67.5244 29.4326 72.0068 29.8394C72.2476 30.4785 74.0571 34.6787 72.4634 39.6343C75.1528 42.689 76.5225 46.499 76.5225 50.6162C76.5225 59.0996 71.625 66.23 59.9209 68.2886C60.9234 69.2745 61.7194 70.4502 62.2624 71.7472C62.8054 73.0441 63.0845 74.4363 63.0835 75.8423V85.1807C63.1499 85.9277 63.0835 86.6665 64.3286 86.6665C79.0293 81.7109 89.6128 67.8237 89.6128 51.4629C89.6128 30.9434 72.978 14.3335 52.4668 14.3335V14.3335Z" fill="black"/>
</svg>
