<svg width="104" height="100" viewBox="0 0 104 100" fill="none" xmlns="http://www.w3.org/2000/svg">
<rect width="104" height="100" rx="20" fill="#4361EE"/>
<path d="M57.1875 38.1875L57.375 42.4375C59.9583 39.1875 63.3333 37.5625 67.5 37.5625C74.6458 37.5625 78.25 41.5938 78.3125 49.6562V72H72.5312V49.625C72.5104 47.1875 71.9479 45.3854 70.8438 44.2188C69.7604 43.0521 68.0625 42.4688 65.75 42.4688C63.875 42.4688 62.2292 42.9688 60.8125 43.9688C59.3958 44.9688 58.2917 46.2812 57.5 47.9062V72H51.7188V38.1875H57.1875Z" fill="white"/>
<path d="M41.875 72H36.0938V38.1875H41.875V72ZM35.625 29.2188C35.625 28.2812 35.9062 27.4896 36.4688 26.8438C37.0521 26.1979 37.9062 25.875 39.0312 25.875C40.1562 25.875 41.0104 26.1979 41.5938 26.8438C42.1771 27.4896 42.4688 28.2812 42.4688 29.2188C42.4688 30.1562 42.1771 30.9375 41.5938 31.5625C41.0104 32.1875 40.1562 32.5 39.0312 32.5C37.9062 32.5 37.0521 32.1875 36.4688 31.5625C35.9062 30.9375 35.625 30.1562 35.625 29.2188Z" fill="white"/>
</svg>
