<svg width="104" height="100" viewBox="0 0 104 100" fill="none" xmlns="http://www.w3.org/2000/svg">
<rect width="104" height="100" rx="20" fill="#2448EF"/>
<g clip-path="url(#clip0)">
<path d="M36.1655 77.9996V40.8911H23.7326V77.9996H36.1655ZM29.9506 35.8216C34.2862 35.8216 36.9849 32.9721 36.9849 29.4111C36.9041 25.7699 34.2864 22.9995 30.0329 22.9995C25.7801 22.9995 22.999 25.77 22.999 29.4111C22.999 32.9722 25.6971 35.8216 29.8695 35.8216H29.9503H29.9506ZM43.0471 77.9996H55.48V57.2764C55.48 56.1673 55.5608 55.0594 55.8891 54.2666C56.7879 52.0507 58.8337 49.7556 62.2682 49.7556C66.7671 49.7556 68.567 53.1586 68.567 58.1471V77.9993H80.9991V56.7217C80.9991 45.3234 74.8654 40.0199 66.6852 40.0199C59.9782 40.0199 57.0333 43.7391 55.3973 46.2723H55.4803V40.8904H43.0474C43.2105 44.3724 43.0474 77.9988 43.0474 77.9988L43.0471 77.9996Z" fill="white"/>
</g>
<defs>
<clipPath id="clip0">
<rect width="58" height="55" fill="white" transform="translate(23 23)"/>
</clipPath>
</defs>
</svg>
